<svg id="svg" version="1.1" xmlns="http://www.w3.org/2000/svg" xmlns:xlink="http://www.w3.org/1999/xlink" width="400" height="400" viewBox="0, 0, 400,400"><g id="svgg"><path id="path0" d="M0.000 200.000 L 0.000 400.000 200.000 400.000 L 400.000 400.000 400.000 200.000 L 400.000 0.000 200.000 0.000 L 0.000 0.000 0.000 200.000 M208.500 33.355 C 209.119 33.437,210.131 33.558,210.750 33.625 C 212.129 33.774,216.383 34.408,218.251 34.742 C 219.493 34.964,223.802 36.034,226.375 36.759 C 231.923 38.324,239.172 41.345,244.492 44.312 C 248.565 46.584,255.839 51.581,257.500 53.249 C 257.569 53.318,258.413 54.043,259.375 54.859 C 265.459 60.020,272.000 67.831,276.702 75.549 C 278.553 78.588,283.000 87.483,283.000 88.147 C 283.000 88.231,283.162 88.654,283.361 89.087 C 283.559 89.520,284.076 90.944,284.510 92.250 C 284.944 93.556,285.386 94.850,285.493 95.125 C 285.752 95.791,286.351 97.972,286.867 100.125 C 287.097 101.088,287.387 102.269,287.511 102.750 C 287.714 103.541,287.887 104.484,288.727 109.375 C 290.560 120.045,289.551 136.158,286.266 148.665 C 286.116 149.238,285.889 150.194,285.762 150.790 C 285.377 152.605,285.009 154.026,284.351 156.250 C 284.006 157.419,283.551 158.994,283.340 159.750 C 282.807 161.662,279.794 170.712,279.385 171.625 C 279.201 172.037,278.878 172.881,278.667 173.500 C 275.588 182.563,267.847 196.898,260.779 206.625 C 254.499 215.266,246.180 223.990,237.625 230.903 C 236.179 232.072,231.071 235.750,230.894 235.750 C 230.829 235.750,230.291 236.073,229.700 236.468 C 229.109 236.862,227.725 237.664,226.625 238.249 C 225.525 238.834,224.512 239.394,224.375 239.493 C 223.986 239.774,218.798 241.889,217.125 242.449 C 213.455 243.677,210.678 244.332,206.500 244.957 C 205.009 245.180,195.963 245.173,194.375 244.948 C 190.362 244.378,188.624 243.996,184.440 242.764 C 178.469 241.006,167.960 235.590,164.400 232.438 C 164.128 232.197,163.832 232.000,163.741 232.000 C 163.651 232.000,163.306 231.777,162.976 231.505 C 162.645 231.232,162.262 230.922,162.125 230.815 C 161.988 230.708,161.369 230.228,160.750 229.749 C 157.103 226.924,150.561 220.458,147.344 216.500 C 146.953 216.019,146.575 215.569,146.503 215.500 C 141.865 211.042,128.411 189.027,124.573 179.616 C 124.237 178.792,123.143 176.282,122.616 175.125 C 122.428 174.713,121.928 173.475,121.504 172.375 C 121.081 171.275,120.639 170.150,120.522 169.875 C 119.743 168.045,117.553 161.560,116.511 158.000 C 116.210 156.969,115.869 155.844,115.754 155.500 C 115.473 154.658,114.357 150.289,113.871 148.125 C 113.655 147.162,113.375 145.925,113.250 145.375 C 112.922 143.939,112.309 140.584,112.108 139.125 C 112.013 138.438,111.890 137.650,111.835 137.375 C 111.695 136.681,111.294 133.377,110.970 130.250 C 110.621 126.887,110.622 114.561,110.971 111.625 C 111.783 104.791,112.929 99.860,115.096 93.875 C 116.979 88.673,117.381 87.724,119.648 83.125 C 122.009 78.335,123.859 75.172,126.593 71.250 C 128.037 69.179,130.962 65.250,131.246 65.000 C 131.324 64.931,132.411 63.694,133.663 62.250 C 141.189 53.565,151.579 45.927,162.716 40.890 C 165.919 39.442,171.073 37.496,173.329 36.883 C 174.042 36.690,175.412 36.315,176.375 36.050 C 177.338 35.785,179.025 35.378,180.125 35.145 C 181.225 34.911,182.575 34.619,183.125 34.494 C 183.675 34.370,184.744 34.199,185.500 34.114 C 186.256 34.030,187.213 33.903,187.625 33.833 C 191.578 33.159,204.722 32.859,208.500 33.355 M131.841 229.930 C 134.725 230.897,137.811 233.581,144.133 240.623 C 149.747 246.876,163.310 260.503,171.250 267.867 C 172.281 268.824,174.084 270.511,175.256 271.616 C 176.427 272.721,178.725 274.863,180.361 276.375 C 181.998 277.887,184.025 279.767,184.867 280.552 C 185.709 281.336,186.631 282.180,186.914 282.427 C 187.198 282.673,189.374 284.675,191.750 286.875 C 194.126 289.075,196.307 291.044,196.597 291.250 C 197.460 291.863,202.058 291.751,203.500 291.081 C 204.700 290.524,204.860 290.406,209.358 286.750 C 210.966 285.444,215.396 281.860,219.203 278.786 C 225.030 274.081,231.337 268.868,232.399 267.880 C 232.549 267.740,233.674 266.727,234.899 265.629 C 240.708 260.421,249.042 251.716,252.255 247.500 C 252.726 246.881,253.177 246.319,253.256 246.250 C 254.123 245.495,259.757 237.008,261.223 234.250 C 262.547 231.757,264.367 230.584,267.905 229.945 C 270.202 229.529,270.870 229.547,275.750 230.153 C 278.362 230.478,285.115 231.922,286.625 232.479 C 286.900 232.580,288.250 233.027,289.625 233.472 C 291.000 233.917,292.350 234.377,292.625 234.494 C 292.900 234.611,294.025 235.064,295.125 235.501 C 299.174 237.109,305.200 240.110,307.496 241.662 C 307.974 241.985,308.499 242.250,308.662 242.250 C 308.825 242.250,308.996 242.338,309.042 242.446 C 309.088 242.553,310.194 243.311,311.500 244.129 C 321.392 250.327,331.719 260.029,339.832 270.750 C 340.613 271.781,341.340 272.738,341.449 272.875 C 344.248 276.421,350.053 286.684,352.761 292.875 C 353.328 294.171,354.329 296.770,354.783 298.125 C 355.059 298.950,355.382 299.850,355.499 300.125 C 356.401 302.234,358.509 310.707,359.264 315.250 C 360.712 323.969,361.368 335.631,360.719 341.125 C 360.314 344.556,359.739 348.577,359.484 349.750 C 358.647 353.618,358.109 355.637,357.109 358.660 C 356.031 361.919,355.788 362.542,354.311 365.813 L 353.662 367.250 200.026 367.188 L 46.389 367.125 45.360 364.775 C 44.794 363.482,43.961 361.289,43.509 359.900 C 43.056 358.511,42.588 357.180,42.468 356.941 C 42.348 356.702,42.250 356.340,42.250 356.137 C 42.250 355.934,42.099 355.285,41.913 354.696 C 41.318 352.802,40.379 348.391,39.982 345.625 C 38.889 338.007,38.828 325.341,39.858 320.000 C 39.924 319.656,40.094 318.531,40.236 317.500 C 41.012 311.829,43.529 301.976,45.247 297.875 C 45.362 297.600,45.812 296.475,46.246 295.375 C 46.680 294.275,47.253 292.898,47.518 292.315 C 47.783 291.732,48.000 291.183,48.000 291.094 C 48.000 290.762,52.067 282.859,53.429 280.544 C 60.884 267.877,70.215 257.446,81.833 248.792 C 84.509 246.798,88.353 244.184,90.063 243.195 C 90.235 243.095,91.134 242.563,92.062 242.010 C 93.754 241.003,101.398 237.177,103.013 236.529 C 103.807 236.210,104.271 236.016,106.375 235.122 C 107.412 234.681,111.909 233.102,113.125 232.752 C 113.675 232.593,114.688 232.296,115.375 232.091 C 117.414 231.484,121.249 230.491,123.125 230.084 C 124.088 229.876,124.922 229.659,124.979 229.603 C 125.304 229.282,130.674 229.539,131.841 229.930 " stroke="none" fill="#fcfcfc" fill-rule="evenodd"></path><path id="path1" d="M197.875 33.375 C 197.738 33.441,195.994 33.606,194.000 33.742 C 189.794 34.028,187.913 34.208,186.000 34.509 C 183.691 34.871,180.430 35.472,179.375 35.729 C 174.571 36.899,174.430 36.939,170.375 38.281 C 168.725 38.827,166.942 39.494,166.414 39.762 C 165.885 40.030,165.345 40.250,165.213 40.250 C 164.593 40.250,158.094 43.441,155.208 45.162 C 152.593 46.722,149.690 48.545,149.500 48.747 C 149.431 48.820,148.918 49.176,148.358 49.538 C 144.140 52.270,134.967 60.810,131.751 65.000 C 131.276 65.619,130.818 66.181,130.733 66.250 C 130.017 66.829,124.437 74.997,123.133 77.375 C 122.756 78.063,122.333 78.766,122.193 78.938 C 122.053 79.109,122.037 79.252,122.157 79.254 C 122.277 79.256,122.263 79.340,122.125 79.441 C 121.723 79.737,120.274 82.484,118.800 85.750 C 118.396 86.644,117.826 87.903,117.533 88.549 C 117.240 89.194,117.000 89.828,117.000 89.958 C 117.000 90.087,116.832 90.515,116.627 90.909 C 116.421 91.303,116.252 91.799,116.252 92.013 C 116.251 92.226,116.160 92.507,116.050 92.638 C 115.941 92.768,115.650 93.494,115.404 94.250 C 115.159 95.006,114.860 95.850,114.741 96.125 C 114.621 96.400,114.397 97.075,114.243 97.625 C 114.088 98.175,113.851 99.019,113.715 99.500 C 113.009 102.001,112.401 104.799,112.159 106.659 C 112.108 107.053,112.004 107.544,111.929 107.750 C 111.853 107.956,111.717 108.800,111.627 109.625 C 110.755 117.559,110.944 128.078,112.102 136.125 C 112.520 139.036,112.752 140.520,112.998 141.875 C 113.266 143.356,113.329 143.661,113.767 145.625 C 113.890 146.175,114.151 147.412,114.346 148.375 C 114.542 149.338,114.722 150.125,114.747 150.125 C 114.772 150.125,114.941 150.744,115.123 151.500 C 115.305 152.256,115.584 153.325,115.743 153.875 C 115.902 154.425,116.149 155.381,116.292 156.000 C 116.435 156.619,116.653 157.232,116.776 157.362 C 116.899 157.493,117.000 157.799,117.000 158.041 C 117.000 158.481,117.580 160.427,117.993 161.375 C 118.113 161.650,118.491 162.775,118.834 163.875 C 119.666 166.552,120.453 168.779,120.754 169.309 C 120.889 169.548,121.000 169.858,121.000 169.998 C 121.000 170.138,121.281 170.835,121.625 171.548 C 121.969 172.261,122.250 172.945,122.250 173.069 C 122.250 173.193,122.588 174.023,123.000 174.915 C 123.413 175.806,123.750 176.689,123.750 176.878 C 123.750 177.066,123.854 177.285,123.981 177.363 C 124.108 177.442,124.285 177.842,124.376 178.253 C 124.466 178.664,124.643 179.000,124.770 179.000 C 124.896 179.000,125.000 179.157,125.000 179.349 C 125.000 179.541,125.346 180.413,125.769 181.287 C 127.311 184.469,129.444 188.683,130.751 191.125 C 131.486 192.500,132.209 193.877,132.357 194.186 C 132.504 194.494,132.709 194.747,132.813 194.748 C 132.916 194.749,133.000 194.862,133.000 194.999 C 133.000 195.266,137.696 203.041,137.984 203.250 C 138.078 203.319,138.563 204.050,139.060 204.875 C 139.558 205.700,140.198 206.623,140.482 206.927 C 140.767 207.231,141.000 207.544,141.000 207.622 C 141.000 207.751,143.512 211.202,144.125 211.916 C 144.262 212.076,144.656 212.574,145.000 213.022 C 148.625 217.751,154.378 223.856,159.005 227.882 C 161.356 229.928,168.072 234.690,170.625 236.120 C 173.228 237.579,176.948 239.433,178.875 240.233 C 179.975 240.690,181.230 241.218,181.663 241.407 C 182.096 241.595,182.624 241.750,182.836 241.750 C 183.047 241.750,183.290 241.862,183.375 242.000 C 183.460 242.137,183.785 242.250,184.098 242.250 C 184.411 242.250,184.751 242.334,184.854 242.438 C 184.957 242.541,185.117 242.631,185.208 242.639 C 185.691 242.680,187.189 243.057,187.625 243.248 C 188.298 243.541,191.499 244.110,195.500 244.646 C 196.597 244.793,204.321 244.784,205.500 244.634 C 205.981 244.573,207.050 244.410,207.875 244.273 C 208.700 244.135,210.106 243.902,211.000 243.755 C 211.894 243.608,212.820 243.377,213.059 243.244 C 213.298 243.110,213.660 243.000,213.863 243.000 C 214.293 243.000,216.448 242.331,217.008 242.024 C 217.219 241.908,217.778 241.729,218.250 241.625 C 218.722 241.521,219.281 241.342,219.492 241.227 C 219.703 241.112,220.438 240.777,221.125 240.483 C 223.364 239.524,226.092 238.158,227.692 237.194 C 228.554 236.675,229.369 236.250,229.504 236.250 C 229.639 236.250,229.750 236.163,229.750 236.057 C 229.750 235.951,230.169 235.641,230.681 235.369 C 231.630 234.865,236.533 231.360,237.854 230.242 C 238.685 229.538,240.203 228.238,242.513 226.250 C 248.968 220.696,257.321 211.175,262.800 203.125 C 264.922 200.007,269.000 193.360,269.000 193.018 C 269.000 192.893,269.084 192.754,269.188 192.708 C 269.291 192.662,269.769 191.838,270.250 190.875 C 270.731 189.912,271.183 189.069,271.254 189.000 C 271.480 188.781,273.000 185.521,273.000 185.255 C 273.000 185.115,273.113 185.000,273.250 185.000 C 273.387 185.000,273.500 184.895,273.500 184.767 C 273.500 184.640,273.845 183.768,274.266 182.830 C 274.687 181.892,275.131 180.900,275.252 180.625 C 275.373 180.350,275.771 179.450,276.138 178.625 C 276.504 177.800,277.020 176.563,277.284 175.875 C 277.548 175.188,277.860 174.400,277.977 174.125 C 278.094 173.850,278.384 173.119,278.621 172.500 C 278.858 171.881,279.138 171.203,279.244 170.992 C 279.350 170.781,279.521 170.222,279.625 169.750 C 279.729 169.278,279.912 168.691,280.032 168.446 C 280.152 168.201,280.348 167.799,280.468 167.554 C 280.588 167.309,280.770 166.719,280.872 166.242 C 280.974 165.765,281.144 165.262,281.250 165.125 C 281.356 164.988,281.533 164.481,281.645 164.000 C 281.891 162.934,281.883 162.962,282.070 162.500 C 282.487 161.466,283.000 159.678,283.000 159.256 C 283.000 158.994,283.100 158.718,283.221 158.643 C 283.343 158.568,283.522 157.970,283.620 157.316 C 283.717 156.661,283.879 156.012,283.980 155.875 C 284.081 155.738,284.366 154.725,284.614 153.625 C 284.862 152.525,285.128 151.456,285.203 151.250 C 285.279 151.044,285.482 150.256,285.655 149.500 C 285.827 148.744,286.096 147.619,286.252 147.000 C 286.408 146.381,286.668 145.144,286.830 144.250 C 286.992 143.356,287.196 142.512,287.282 142.375 C 287.368 142.238,287.520 141.394,287.620 140.500 C 287.720 139.606,287.857 138.650,287.924 138.375 C 288.107 137.627,288.507 134.563,288.627 133.000 C 288.685 132.244,288.797 131.361,288.877 131.039 C 289.118 130.063,289.007 115.528,288.741 113.250 C 288.318 109.618,287.483 104.464,286.999 102.500 C 286.847 101.881,286.722 101.180,286.720 100.942 C 286.719 100.705,286.613 100.445,286.484 100.365 C 286.355 100.286,286.250 99.840,286.250 99.375 C 286.250 98.910,286.152 98.469,286.033 98.395 C 285.913 98.321,285.743 97.804,285.653 97.245 C 285.564 96.686,285.396 96.036,285.280 95.802 C 285.164 95.567,284.706 94.250,284.263 92.875 C 283.819 91.500,283.297 90.020,283.103 89.587 C 282.909 89.154,282.750 88.735,282.750 88.657 C 282.750 88.579,282.460 87.865,282.106 87.070 C 281.752 86.275,281.290 85.231,281.080 84.750 C 279.059 80.130,274.145 71.633,272.576 70.045 C 272.397 69.863,272.248 69.638,272.246 69.545 C 272.244 69.451,271.906 68.994,271.496 68.529 C 271.086 68.063,270.750 67.613,270.750 67.529 C 270.750 67.444,270.455 67.037,270.095 66.625 C 269.735 66.213,268.851 65.144,268.131 64.250 C 266.146 61.786,259.677 55.358,257.873 54.057 C 257.734 53.957,257.171 53.505,256.623 53.054 C 255.112 51.810,255.178 51.860,252.569 49.997 C 251.225 49.037,249.994 48.144,249.835 48.012 C 249.479 47.718,246.519 45.909,246.000 45.669 C 245.794 45.574,245.231 45.254,244.750 44.958 C 243.249 44.036,238.674 41.750,238.329 41.750 C 238.148 41.750,238.000 41.638,238.000 41.500 C 238.000 41.362,237.859 41.246,237.688 41.242 C 237.516 41.237,236.925 41.016,236.375 40.750 C 235.825 40.484,235.256 40.263,235.109 40.258 C 234.963 40.254,234.393 40.032,233.843 39.766 C 233.292 39.500,232.511 39.203,232.108 39.107 C 231.705 39.010,231.262 38.847,231.125 38.744 C 230.988 38.642,230.481 38.476,230.000 38.375 C 229.519 38.274,229.012 38.113,228.875 38.015 C 228.738 37.918,227.894 37.639,227.000 37.395 C 226.106 37.152,225.195 36.860,224.974 36.747 C 224.550 36.530,222.255 36.116,221.938 36.200 C 221.834 36.228,221.750 36.149,221.750 36.026 C 221.750 35.903,221.328 35.738,220.813 35.660 C 218.235 35.267,216.099 34.858,215.875 34.716 C 215.738 34.628,214.556 34.475,213.250 34.374 C 211.944 34.274,210.650 34.136,210.375 34.068 C 209.363 33.818,198.235 33.201,197.875 33.375 M124.500 230.180 C 123.469 230.378,122.400 230.630,122.125 230.740 C 121.850 230.849,121.063 231.055,120.375 231.197 C 119.688 231.340,118.731 231.572,118.250 231.713 C 117.769 231.854,116.869 232.099,116.250 232.256 C 115.631 232.414,114.900 232.639,114.625 232.757 C 114.350 232.875,113.731 233.047,113.250 233.139 C 112.769 233.232,112.263 233.389,112.125 233.488 C 111.987 233.587,111.200 233.873,110.375 234.124 C 109.550 234.375,108.706 234.663,108.500 234.765 C 108.294 234.866,107.619 235.144,107.000 235.383 C 104.832 236.221,103.700 236.697,101.375 237.747 C 99.176 238.741,95.416 240.584,95.250 240.750 C 95.181 240.819,94.675 241.098,94.125 241.370 C 93.309 241.774,90.786 243.291,85.886 246.322 C 85.616 246.489,85.243 246.766,85.055 246.938 C 84.868 247.109,84.631 247.250,84.529 247.250 C 84.428 247.250,84.126 247.448,83.860 247.689 C 83.593 247.931,83.094 248.311,82.750 248.534 C 82.059 248.982,76.699 253.212,76.500 253.466 C 76.431 253.554,75.925 254.005,75.375 254.469 C 72.280 257.080,66.150 263.431,63.521 266.750 C 62.377 268.194,61.089 269.813,60.658 270.349 C 60.228 270.885,59.664 271.673,59.406 272.099 C 59.148 272.526,58.858 272.931,58.761 273.000 C 58.312 273.319,53.000 281.806,53.000 282.205 C 53.000 282.344,52.908 282.496,52.795 282.542 C 52.454 282.681,47.578 292.753,47.127 294.250 C 47.024 294.594,46.857 294.988,46.756 295.125 C 46.656 295.262,46.365 295.994,46.110 296.750 C 45.855 297.506,45.571 298.238,45.477 298.375 C 45.384 298.512,45.224 299.015,45.122 299.492 C 45.020 299.969,44.846 300.531,44.735 300.742 C 44.624 300.953,44.184 302.306,43.757 303.750 C 42.592 307.689,42.562 307.797,42.359 308.875 C 42.255 309.425,42.134 309.988,42.090 310.125 C 42.047 310.262,41.900 310.881,41.764 311.500 C 41.628 312.119,41.453 312.906,41.375 313.250 C 41.297 313.594,41.165 314.438,41.082 315.125 C 40.999 315.813,40.847 316.488,40.743 316.625 C 40.640 316.762,40.478 317.944,40.383 319.250 C 40.288 320.556,40.118 322.019,40.005 322.500 C 39.342 325.314,39.291 339.152,39.933 341.750 C 40.018 342.094,40.107 342.600,40.130 342.875 C 40.399 346.046,40.602 347.534,40.783 347.645 C 40.902 347.719,41.000 348.122,41.000 348.541 C 41.000 349.251,41.632 352.403,41.944 353.250 C 42.156 353.826,42.150 353.801,42.360 355.063 C 42.468 355.716,42.656 356.250,42.778 356.250 C 42.900 356.250,43.004 356.503,43.008 356.813 C 43.016 357.347,43.715 359.593,44.039 360.125 C 44.123 360.262,44.269 360.736,44.363 361.177 C 44.458 361.618,44.809 362.546,45.143 363.238 C 45.477 363.931,45.750 364.660,45.750 364.859 C 45.750 365.058,45.854 365.285,45.981 365.363 C 46.108 365.442,46.285 365.842,46.376 366.253 L 46.540 367.000 199.965 367.000 L 353.389 367.000 354.195 365.219 C 354.638 364.240,355.000 363.291,355.000 363.109 C 355.000 362.928,355.104 362.715,355.231 362.637 C 355.358 362.558,355.541 362.134,355.638 361.693 C 355.812 360.898,355.919 360.619,356.444 359.593 C 356.593 359.301,356.794 358.626,356.890 358.093 C 356.987 357.561,357.150 357.012,357.254 356.875 C 357.357 356.738,357.574 356.063,357.735 355.375 C 357.897 354.688,358.143 353.675,358.282 353.125 C 360.107 345.931,360.865 337.062,360.397 328.375 C 360.294 326.450,360.146 324.706,360.070 324.500 C 359.891 324.017,359.847 323.639,359.627 320.625 C 359.526 319.250,359.372 318.012,359.284 317.875 C 359.197 317.738,358.988 316.669,358.819 315.500 C 358.651 314.331,358.403 312.869,358.268 312.250 C 358.133 311.631,357.858 310.337,357.657 309.375 C 357.455 308.413,357.106 306.950,356.881 306.125 C 356.656 305.300,356.406 304.344,356.327 304.000 C 356.248 303.656,356.098 303.262,355.995 303.125 C 355.891 302.988,355.728 302.397,355.632 301.814 C 355.535 301.230,355.367 300.697,355.257 300.629 C 355.147 300.561,354.980 300.097,354.886 299.597 C 354.792 299.097,354.620 298.505,354.504 298.282 C 354.007 297.328,353.500 296.024,353.500 295.700 C 353.500 295.507,353.406 295.243,353.291 295.113 C 353.176 294.982,352.824 294.256,352.508 293.500 C 349.100 285.334,344.859 278.005,339.181 270.469 C 339.013 270.246,338.522 269.627,338.090 269.094 C 337.659 268.561,336.723 267.394,336.012 266.500 C 332.399 261.960,325.040 254.660,320.799 251.409 C 320.428 251.125,320.069 250.825,320.000 250.743 C 318.377 248.801,307.110 241.583,301.125 238.651 C 297.548 236.898,295.022 235.750,294.741 235.750 C 294.618 235.750,294.091 235.566,293.571 235.340 C 291.934 234.631,291.683 234.541,289.125 233.733 C 287.750 233.299,286.445 232.854,286.224 232.743 C 286.004 232.632,285.273 232.462,284.599 232.364 C 283.926 232.267,283.262 232.102,283.125 231.998 C 282.861 231.799,282.278 231.684,279.250 231.233 C 278.219 231.080,277.199 230.865,276.985 230.755 C 276.661 230.589,272.453 230.189,270.625 230.151 C 269.625 230.130,266.424 230.542,266.030 230.743 C 265.807 230.856,265.175 231.136,264.625 231.364 C 263.193 231.960,262.680 232.454,261.747 234.136 C 258.914 239.242,254.994 244.867,250.777 249.875 C 247.187 254.138,241.510 260.064,237.375 263.864 C 236.825 264.370,235.862 265.263,235.236 265.849 C 234.248 266.774,224.812 274.799,224.125 275.299 C 223.988 275.399,223.088 276.133,222.125 276.930 C 221.162 277.726,218.406 279.950,216.000 281.871 C 213.594 283.792,211.569 285.425,211.500 285.501 C 211.431 285.576,210.869 286.026,210.250 286.500 C 209.631 286.974,209.069 287.421,209.000 287.494 C 208.931 287.567,208.031 288.301,207.000 289.125 C 205.969 289.949,205.069 290.681,205.000 290.752 C 204.806 290.950,203.212 291.661,202.356 291.931 C 201.259 292.277,197.585 292.339,197.384 292.015 C 197.294 291.869,197.030 291.748,196.798 291.745 C 196.565 291.742,195.644 291.057,194.750 290.223 C 193.856 289.388,191.954 287.619,190.522 286.290 C 189.090 284.962,187.556 283.538,187.114 283.125 C 186.671 282.712,185.705 281.825,184.967 281.152 C 184.229 280.479,182.777 279.129,181.740 278.152 C 180.703 277.175,178.573 275.194,177.006 273.750 C 175.438 272.306,173.798 270.788,173.360 270.375 C 172.922 269.962,170.834 267.994,168.719 266.001 C 163.548 261.127,150.292 247.872,146.714 244.000 C 142.094 238.999,141.170 237.986,140.375 237.048 C 135.022 230.731,130.908 228.951,124.500 230.180 " stroke="none" fill="#ccc4c4" fill-rule="evenodd"></path><path id="path2" d="M195.063 33.422 C 195.303 33.485,195.697 33.485,195.938 33.422 C 196.178 33.359,195.981 33.308,195.500 33.308 C 195.019 33.308,194.822 33.359,195.063 33.422 M203.940 33.427 C 204.251 33.487,204.701 33.484,204.940 33.422 C 205.179 33.359,204.925 33.310,204.375 33.313 C 203.825 33.316,203.629 33.367,203.940 33.427 M179.250 35.500 C 178.735 35.665,178.713 35.704,179.125 35.721 C 179.400 35.733,179.794 35.633,180.000 35.500 C 180.438 35.217,180.134 35.217,179.250 35.500 M137.244 58.688 L 135.125 60.875 137.313 58.756 C 138.516 57.590,139.500 56.605,139.500 56.568 C 139.500 56.386,139.213 56.656,137.244 58.688 M263.125 58.750 C 263.941 59.575,264.666 60.250,264.734 60.250 C 264.803 60.250,264.191 59.575,263.375 58.750 C 262.559 57.925,261.834 57.250,261.766 57.250 C 261.697 57.250,262.309 57.925,263.125 58.750 M133.359 62.813 L 132.625 63.625 133.438 62.891 C 133.884 62.487,134.250 62.121,134.250 62.078 C 134.250 61.885,134.044 62.055,133.359 62.813 M289.063 115.875 C 289.066 116.425,289.117 116.621,289.177 116.310 C 289.237 115.999,289.234 115.549,289.172 115.310 C 289.109 115.071,289.060 115.325,289.063 115.875 M110.827 117.125 C 110.829 117.950,110.876 118.257,110.931 117.808 C 110.987 117.359,110.986 116.684,110.929 116.308 C 110.872 115.932,110.826 116.300,110.827 117.125 M289.340 123.000 C 289.340 124.306,289.382 124.841,289.434 124.188 C 289.485 123.534,289.485 122.466,289.434 121.813 C 289.382 121.159,289.340 121.694,289.340 123.000 M110.808 122.500 C 110.808 122.981,110.859 123.178,110.922 122.938 C 110.985 122.697,110.985 122.303,110.922 122.063 C 110.859 121.822,110.808 122.019,110.808 122.500 M110.813 124.875 C 110.816 125.425,110.867 125.621,110.927 125.310 C 110.987 124.999,110.984 124.549,110.922 124.310 C 110.859 124.071,110.810 124.325,110.813 124.875 M289.063 129.625 C 289.066 130.175,289.117 130.371,289.177 130.060 C 289.237 129.749,289.234 129.299,289.172 129.060 C 289.109 128.821,289.060 129.075,289.063 129.625 M247.500 221.625 C 246.476 222.656,245.694 223.500,245.763 223.500 C 245.831 223.500,246.726 222.656,247.750 221.625 C 248.774 220.594,249.556 219.750,249.487 219.750 C 249.419 219.750,248.524 220.594,247.500 221.625 M243.109 225.813 L 242.375 226.625 243.188 225.891 C 243.634 225.487,244.000 225.121,244.000 225.078 C 244.000 224.885,243.794 225.055,243.109 225.813 M127.813 229.672 C 128.053 229.735,128.447 229.735,128.688 229.672 C 128.928 229.609,128.731 229.558,128.250 229.558 C 127.769 229.558,127.572 229.609,127.813 229.672 M145.000 242.125 C 145.466 242.606,145.904 243.000,145.973 243.000 C 146.042 243.000,145.716 242.606,145.250 242.125 C 144.784 241.644,144.346 241.250,144.277 241.250 C 144.208 241.250,144.534 241.644,145.000 242.125 M325.250 255.078 C 325.250 255.121,325.616 255.487,326.063 255.891 L 326.875 256.625 326.141 255.813 C 325.456 255.055,325.250 254.885,325.250 255.078 M242.237 258.938 L 241.375 259.875 242.313 259.013 C 243.185 258.212,243.365 258.000,243.174 258.000 C 243.132 258.000,242.710 258.422,242.237 258.938 M164.750 262.125 C 165.216 262.606,165.654 263.000,165.723 263.000 C 165.792 263.000,165.466 262.606,165.000 262.125 C 164.534 261.644,164.096 261.250,164.027 261.250 C 163.958 261.250,164.284 261.644,164.750 262.125 M236.109 264.813 L 235.375 265.625 236.188 264.891 C 236.634 264.487,237.000 264.121,237.000 264.078 C 237.000 263.885,236.794 264.055,236.109 264.813 M169.750 266.828 C 169.750 266.871,170.116 267.237,170.563 267.641 L 171.375 268.375 170.641 267.563 C 169.956 266.805,169.750 266.635,169.750 266.828 M173.500 270.328 C 173.500 270.371,173.866 270.737,174.313 271.141 L 175.125 271.875 174.391 271.063 C 173.706 270.305,173.500 270.135,173.500 270.328 M178.250 274.875 C 178.716 275.356,179.154 275.750,179.223 275.750 C 179.292 275.750,178.966 275.356,178.500 274.875 C 178.034 274.394,177.596 274.000,177.527 274.000 C 177.458 274.000,177.784 274.394,178.250 274.875 M181.750 278.125 C 182.216 278.606,182.654 279.000,182.723 279.000 C 182.792 279.000,182.466 278.606,182.000 278.125 C 181.534 277.644,181.096 277.250,181.027 277.250 C 180.958 277.250,181.284 277.644,181.750 278.125 M39.572 324.875 C 39.573 325.563,39.622 325.814,39.679 325.434 C 39.737 325.054,39.735 324.492,39.676 324.184 C 39.617 323.877,39.570 324.188,39.572 324.875 M360.318 326.750 C 360.318 327.369,360.367 327.622,360.426 327.313 C 360.486 327.003,360.486 326.497,360.426 326.188 C 360.367 325.878,360.318 326.131,360.318 326.750 M39.313 328.125 C 39.316 328.675,39.367 328.871,39.427 328.560 C 39.487 328.249,39.484 327.799,39.422 327.560 C 39.359 327.321,39.310 327.575,39.313 328.125 M360.572 329.625 C 360.573 330.313,360.622 330.564,360.679 330.184 C 360.737 329.804,360.735 329.242,360.676 328.934 C 360.617 328.627,360.570 328.938,360.572 329.625 M39.313 336.875 C 39.316 337.425,39.367 337.621,39.427 337.310 C 39.487 336.999,39.484 336.549,39.422 336.310 C 39.359 336.071,39.310 336.325,39.313 336.875 M360.568 338.000 C 360.568 338.619,360.617 338.872,360.676 338.563 C 360.736 338.253,360.736 337.747,360.676 337.438 C 360.617 337.128,360.568 337.381,360.568 338.000 M360.313 341.125 C 360.316 341.675,360.367 341.871,360.427 341.560 C 360.487 341.249,360.484 340.799,360.422 340.560 C 360.359 340.321,360.310 340.575,360.313 341.125 M353.565 366.625 C 353.379 366.957,335.960 367.007,199.865 367.063 L 46.375 367.125 199.929 367.188 C 353.258 367.250,353.483 367.249,353.750 366.750 C 354.057 366.176,353.883 366.057,353.565 366.625 " stroke="none" fill="#dcdcdc" fill-rule="evenodd"></path><path id="path3" d="M196.690 33.427 C 197.001 33.487,197.451 33.484,197.690 33.422 C 197.929 33.359,197.675 33.310,197.125 33.313 C 196.575 33.316,196.379 33.367,196.690 33.427 M201.938 33.426 C 202.247 33.486,202.753 33.486,203.063 33.426 C 203.372 33.367,203.119 33.318,202.500 33.318 C 201.881 33.318,201.628 33.367,201.938 33.426 M194.190 33.677 C 194.501 33.737,194.951 33.734,195.190 33.672 C 195.429 33.609,195.175 33.560,194.625 33.563 C 194.075 33.566,193.879 33.617,194.190 33.677 M204.938 33.676 C 205.247 33.736,205.753 33.736,206.063 33.676 C 206.372 33.617,206.119 33.568,205.500 33.568 C 204.881 33.568,204.628 33.617,204.938 33.676 M187.938 34.176 C 188.247 34.236,188.753 34.236,189.063 34.176 C 189.372 34.117,189.119 34.068,188.500 34.068 C 187.881 34.068,187.628 34.117,187.938 34.176 M211.188 34.176 C 211.497 34.236,212.003 34.236,212.313 34.176 C 212.622 34.117,212.369 34.068,211.750 34.068 C 211.131 34.068,210.878 34.117,211.188 34.176 M183.750 34.750 C 183.235 34.915,183.213 34.954,183.625 34.971 C 183.900 34.983,184.294 34.883,184.500 34.750 C 184.938 34.467,184.634 34.467,183.750 34.750 M139.616 56.563 L 138.375 57.875 139.688 56.634 C 140.907 55.482,141.115 55.250,140.928 55.250 C 140.889 55.250,140.298 55.841,139.616 56.563 M287.808 106.750 C 287.808 107.231,287.859 107.428,287.922 107.188 C 287.985 106.947,287.985 106.553,287.922 106.313 C 287.859 106.072,287.808 106.269,287.808 106.750 M289.092 119.750 C 289.092 121.194,289.134 121.784,289.184 121.063 C 289.235 120.341,289.235 119.159,289.184 118.438 C 289.134 117.716,289.092 118.306,289.092 119.750 M289.080 124.000 C 289.080 124.894,289.125 125.259,289.181 124.813 C 289.236 124.366,289.236 123.634,289.181 123.188 C 289.125 122.741,289.080 123.106,289.080 124.000 M289.063 126.625 C 289.066 127.175,289.117 127.371,289.177 127.060 C 289.237 126.749,289.234 126.299,289.172 126.060 C 289.109 125.821,289.060 126.075,289.063 126.625 M117.941 161.886 C 118.006 162.228,118.143 162.559,118.244 162.621 C 118.345 162.684,118.374 162.455,118.309 162.114 C 118.244 161.772,118.107 161.441,118.006 161.379 C 117.905 161.316,117.876 161.545,117.941 161.886 M152.740 222.063 C 153.353 222.716,153.887 223.250,153.927 223.250 C 154.115 223.250,153.916 223.026,152.813 221.990 L 151.625 220.875 152.740 222.063 M154.750 224.078 C 154.750 224.121,155.116 224.487,155.563 224.891 L 156.375 225.625 155.641 224.813 C 154.956 224.055,154.750 223.885,154.750 224.078 M268.813 230.172 C 269.053 230.235,269.447 230.235,269.688 230.172 C 269.928 230.109,269.731 230.058,269.250 230.058 C 268.769 230.058,268.572 230.109,268.813 230.172 M271.688 230.176 C 271.997 230.236,272.503 230.236,272.813 230.176 C 273.122 230.117,272.869 230.068,272.250 230.068 C 271.631 230.068,271.378 230.117,271.688 230.176 M141.750 238.625 C 142.216 239.106,142.654 239.500,142.723 239.500 C 142.792 239.500,142.466 239.106,142.000 238.625 C 141.534 238.144,141.096 237.750,141.027 237.750 C 140.958 237.750,141.284 238.144,141.750 238.625 M209.500 244.003 C 209.236 244.176,209.384 244.202,210.000 244.089 C 211.078 243.891,211.282 243.749,210.479 243.754 C 210.147 243.756,209.706 243.868,209.500 244.003 M197.938 244.926 C 198.247 244.986,198.753 244.986,199.063 244.926 C 199.372 244.867,199.119 244.818,198.500 244.818 C 197.881 244.818,197.628 244.867,197.938 244.926 M201.438 244.926 C 201.747 244.986,202.253 244.986,202.563 244.926 C 202.872 244.867,202.619 244.818,202.000 244.818 C 201.381 244.818,201.128 244.867,201.438 244.926 M152.375 250.000 C 153.191 250.825,153.916 251.500,153.984 251.500 C 154.053 251.500,153.441 250.825,152.625 250.000 C 151.809 249.175,151.084 248.500,151.016 248.500 C 150.947 248.500,151.559 249.175,152.375 250.000 M155.375 253.000 C 156.052 253.688,156.662 254.250,156.731 254.250 C 156.800 254.250,156.302 253.688,155.625 253.000 C 154.948 252.313,154.338 251.750,154.269 251.750 C 154.200 251.750,154.698 252.313,155.375 253.000 M160.500 258.125 C 161.801 259.431,162.921 260.500,162.990 260.500 C 163.059 260.500,162.051 259.431,160.750 258.125 C 159.449 256.819,158.329 255.750,158.260 255.750 C 158.191 255.750,159.199 256.819,160.500 258.125 M71.867 257.563 L 70.375 259.125 71.938 257.633 C 72.797 256.812,73.500 256.109,73.500 256.070 C 73.500 255.886,73.253 256.111,71.867 257.563 M68.617 260.813 L 67.125 262.375 68.688 260.883 C 70.139 259.497,70.364 259.250,70.180 259.250 C 70.141 259.250,69.438 259.953,68.617 260.813 M167.375 264.750 C 167.912 265.300,168.408 265.750,168.476 265.750 C 168.545 265.750,168.162 265.300,167.625 264.750 C 167.088 264.200,166.592 263.750,166.524 263.750 C 166.455 263.750,166.838 264.200,167.375 264.750 M59.134 272.147 C 58.901 272.502,58.753 272.836,58.806 272.889 C 58.858 272.942,59.099 272.651,59.340 272.242 C 59.879 271.330,59.718 271.256,59.134 272.147 M197.473 292.074 C 197.583 292.184,198.506 292.239,199.524 292.197 L 201.375 292.120 199.324 291.998 C 198.196 291.930,197.363 291.965,197.473 292.074 M359.000 317.110 C 359.000 317.446,359.092 317.777,359.205 317.847 C 359.317 317.917,359.361 317.642,359.301 317.237 C 359.170 316.343,359.000 316.272,359.000 317.110 M40.068 321.000 C 40.068 321.619,40.117 321.872,40.176 321.563 C 40.236 321.253,40.236 320.747,40.176 320.438 C 40.117 320.128,40.068 320.381,40.068 321.000 M359.825 322.250 C 359.825 323.006,359.872 323.316,359.929 322.938 C 359.986 322.559,359.986 321.941,359.929 321.563 C 359.872 321.184,359.825 321.494,359.825 322.250 M39.558 326.750 C 39.558 327.231,39.609 327.428,39.672 327.188 C 39.735 326.947,39.735 326.553,39.672 326.313 C 39.609 326.072,39.558 326.269,39.558 326.750 M360.308 328.500 C 360.308 328.981,360.359 329.178,360.422 328.938 C 360.485 328.697,360.485 328.303,360.422 328.063 C 360.359 327.822,360.308 328.019,360.308 328.500 M39.308 329.750 C 39.308 330.231,39.359 330.428,39.422 330.188 C 39.485 329.947,39.485 329.553,39.422 329.313 C 39.359 329.072,39.308 329.269,39.308 329.750 M39.318 335.000 C 39.318 335.619,39.367 335.872,39.426 335.563 C 39.486 335.253,39.486 334.747,39.426 334.438 C 39.367 334.128,39.318 334.381,39.318 335.000 M39.558 338.000 C 39.558 338.481,39.609 338.678,39.672 338.438 C 39.735 338.197,39.735 337.803,39.672 337.563 C 39.609 337.322,39.558 337.519,39.558 338.000 M360.318 339.250 C 360.318 339.869,360.367 340.122,360.426 339.813 C 360.486 339.503,360.486 338.997,360.426 338.688 C 360.367 338.378,360.318 338.631,360.318 339.250 M359.813 344.875 C 359.816 345.425,359.867 345.621,359.927 345.310 C 359.987 344.999,359.984 344.549,359.922 344.310 C 359.859 344.071,359.810 344.325,359.813 344.875 M40.720 348.305 C 40.835 348.999,40.871 349.034,40.949 348.534 C 41.000 348.208,40.939 347.839,40.813 347.713 C 40.675 347.575,40.638 347.808,40.720 348.305 " stroke="none" fill="#d4cccc" fill-rule="evenodd"></path><path id="path4" d="M193.250 33.250 L 191.875 33.419 193.313 33.459 C 194.131 33.482,194.750 33.392,194.750 33.250 C 194.750 33.112,194.722 33.018,194.688 33.041 C 194.653 33.063,194.006 33.157,193.250 33.250 M197.813 33.186 C 199.153 33.231,201.347 33.231,202.688 33.186 C 204.028 33.141,202.931 33.105,200.250 33.105 C 197.569 33.105,196.472 33.141,197.813 33.186 M205.750 33.306 C 205.750 33.413,206.200 33.500,206.750 33.500 C 207.300 33.500,207.750 33.456,207.750 33.401 C 207.750 33.347,207.300 33.260,206.750 33.207 C 206.200 33.155,205.750 33.199,205.750 33.306 M188.375 33.757 C 187.920 33.876,188.314 33.900,189.375 33.818 C 190.338 33.743,191.172 33.641,191.229 33.591 C 191.421 33.424,189.135 33.557,188.375 33.757 M208.771 33.592 C 208.828 33.643,209.719 33.747,210.750 33.823 C 211.894 33.908,212.333 33.884,211.875 33.761 C 211.120 33.558,208.577 33.420,208.771 33.592 M184.296 34.256 C 183.565 34.362,182.890 34.528,182.796 34.623 C 182.616 34.806,184.511 34.584,186.000 34.248 C 187.154 33.987,186.107 33.992,184.296 34.256 M214.000 34.238 C 215.371 34.563,217.450 34.776,216.875 34.532 C 216.600 34.416,215.644 34.256,214.750 34.176 C 213.632 34.076,213.398 34.095,214.000 34.238 M180.625 35.000 C 179.951 35.171,179.939 35.191,180.500 35.196 C 180.844 35.198,181.406 35.110,181.750 35.000 C 182.590 34.731,181.683 34.731,180.625 35.000 M218.250 34.962 C 219.176 35.269,221.250 35.534,220.596 35.261 C 220.304 35.140,219.517 34.976,218.846 34.898 C 218.038 34.803,217.836 34.825,218.250 34.962 M177.375 35.750 L 176.875 35.965 177.375 35.965 C 177.650 35.965,178.100 35.868,178.375 35.750 L 178.875 35.535 178.375 35.535 C 178.100 35.535,177.650 35.632,177.375 35.750 M221.750 35.750 C 222.605 36.024,223.262 36.024,222.625 35.750 C 222.350 35.632,221.900 35.538,221.625 35.542 C 221.223 35.548,221.248 35.589,221.750 35.750 M175.285 36.287 C 174.823 36.420,174.494 36.577,174.553 36.636 C 174.612 36.696,175.159 36.588,175.768 36.397 C 177.011 36.007,176.591 35.911,175.285 36.287 M224.271 36.340 C 224.328 36.389,224.713 36.505,225.125 36.597 C 225.673 36.720,225.774 36.697,225.500 36.511 C 225.162 36.283,224.020 36.123,224.271 36.340 M172.875 37.000 L 172.375 37.215 172.875 37.229 C 173.150 37.236,173.544 37.133,173.750 37.000 C 174.247 36.679,173.622 36.679,172.875 37.000 M226.500 36.963 C 226.706 37.084,227.213 37.256,227.625 37.345 C 228.105 37.448,228.240 37.428,228.000 37.287 C 227.794 37.166,227.287 36.994,226.875 36.905 C 226.395 36.802,226.260 36.822,226.500 36.963 M170.047 37.921 C 169.041 38.268,168.263 38.596,168.317 38.651 C 168.423 38.756,171.998 37.585,172.207 37.376 C 172.437 37.146,171.894 37.283,170.047 37.921 M230.375 38.190 C 230.512 38.325,230.963 38.508,231.375 38.596 C 232.236 38.781,231.759 38.423,230.750 38.127 C 230.339 38.007,230.211 38.028,230.375 38.190 M166.376 39.284 C 165.013 39.836,164.504 40.177,165.499 39.870 C 166.418 39.586,168.165 38.786,167.875 38.781 C 167.738 38.779,167.063 39.005,166.376 39.284 M232.271 38.852 C 232.328 38.908,233.331 39.350,234.500 39.835 C 235.669 40.320,237.075 40.903,237.625 41.132 C 238.175 41.360,238.512 41.440,238.375 41.309 C 238.238 41.179,236.873 40.550,235.342 39.911 C 232.811 38.855,231.982 38.569,232.271 38.852 M163.375 40.608 C 162.688 40.940,162.195 41.219,162.281 41.230 C 162.510 41.259,164.750 40.246,164.750 40.113 C 164.750 39.948,164.737 39.952,163.375 40.608 M159.438 42.391 C 158.509 42.867,157.750 43.313,157.750 43.382 C 157.750 43.493,161.225 41.829,161.479 41.596 C 161.821 41.282,160.898 41.641,159.438 42.391 M238.771 41.596 C 239.033 41.839,244.096 44.272,243.875 44.049 C 243.585 43.757,239.143 41.500,238.858 41.500 C 238.753 41.500,238.714 41.543,238.771 41.596 M244.387 44.459 C 244.771 44.796,247.000 46.032,247.000 45.907 C 247.000 45.763,244.553 44.250,244.321 44.250 C 244.227 44.250,244.257 44.344,244.387 44.459 M153.199 45.871 C 152.146 46.488,151.214 47.105,151.129 47.244 C 150.994 47.463,154.875 45.208,155.209 44.874 C 155.523 44.560,154.970 44.834,153.199 45.871 M248.500 46.825 C 248.500 46.883,249.147 47.344,249.938 47.852 C 250.728 48.359,251.067 48.513,250.691 48.193 C 249.949 47.562,248.500 46.658,248.500 46.825 M251.625 48.925 C 252.208 49.504,256.065 52.308,255.891 52.026 C 255.786 51.856,254.895 51.126,253.912 50.404 C 252.083 49.060,251.160 48.464,251.625 48.925 M146.563 50.388 C 145.566 51.146,144.750 51.822,144.750 51.889 C 144.750 51.957,145.594 51.377,146.625 50.601 C 148.254 49.375,148.696 48.985,148.438 49.005 C 148.403 49.007,147.559 49.630,146.563 50.388 M142.309 53.757 C 141.860 54.166,141.585 54.500,141.699 54.500 C 141.813 54.500,142.230 54.163,142.625 53.750 C 143.544 52.791,143.366 52.795,142.309 53.757 M140.146 55.635 C 139.607 56.111,139.276 56.500,139.409 56.500 C 139.543 56.500,140.034 56.106,140.500 55.625 C 141.577 54.513,141.411 54.518,140.146 55.635 M260.109 55.683 C 260.650 56.265,261.147 56.687,261.213 56.620 C 261.279 56.554,261.285 56.472,261.226 56.438 C 261.168 56.403,260.671 55.981,260.122 55.500 L 259.125 54.626 260.109 55.683 M136.740 58.938 C 134.062 61.696,132.868 63.000,133.023 63.000 C 133.090 63.000,134.470 61.594,136.090 59.875 C 137.711 58.156,138.998 56.750,138.951 56.750 C 138.903 56.750,137.909 57.734,136.740 58.938 M263.500 58.869 C 264.256 59.691,264.903 60.413,264.938 60.473 C 264.972 60.534,265.053 60.530,265.118 60.465 C 265.184 60.400,264.537 59.678,263.681 58.861 L 262.125 57.375 263.500 58.869 M267.500 63.250 C 268.353 64.213,269.108 65.000,269.176 65.000 C 269.245 65.000,268.603 64.213,267.750 63.250 C 266.897 62.288,266.142 61.500,266.074 61.500 C 266.005 61.500,266.647 62.288,267.500 63.250 M130.305 66.135 C 129.244 67.577,129.427 67.571,130.612 66.125 C 131.119 65.506,131.442 65.004,131.329 65.010 C 131.217 65.015,130.756 65.521,130.305 66.135 M270.369 66.717 C 271.045 67.577,271.711 68.351,271.849 68.436 C 271.986 68.521,271.568 67.900,270.918 67.056 C 270.269 66.212,269.603 65.439,269.439 65.337 C 269.275 65.236,269.693 65.857,270.369 66.717 M128.965 67.938 C 128.246 68.806,127.941 69.250,128.065 69.250 C 128.134 69.250,128.491 68.856,128.858 68.375 C 129.539 67.482,129.622 67.145,128.965 67.938 M273.000 70.250 C 273.294 70.662,273.590 71.000,273.659 71.000 C 273.728 71.000,273.544 70.662,273.250 70.250 C 272.956 69.838,272.660 69.500,272.591 69.500 C 272.522 69.500,272.706 69.838,273.000 70.250 M274.366 72.188 C 274.751 72.772,275.114 73.250,275.172 73.250 C 275.353 73.250,274.395 71.728,274.020 71.418 C 273.825 71.257,273.980 71.603,274.366 72.188 M275.468 73.875 C 275.603 74.150,275.897 74.600,276.120 74.875 L 276.528 75.375 276.282 74.875 C 276.147 74.600,275.853 74.150,275.630 73.875 L 275.222 73.375 275.468 73.875 M123.021 76.754 C 122.269 77.977,121.923 78.849,122.580 77.868 C 123.321 76.761,124.033 75.500,123.917 75.500 C 123.849 75.500,123.446 76.064,123.021 76.754 M279.038 80.163 C 280.048 82.109,280.915 83.663,280.964 83.616 C 281.078 83.506,277.803 77.205,277.460 76.875 C 277.318 76.737,278.027 78.217,279.038 80.163 M121.625 79.250 C 121.412 79.662,121.293 80.000,121.362 80.000 C 121.431 80.000,121.662 79.662,121.875 79.250 C 122.088 78.838,122.207 78.500,122.138 78.500 C 122.069 78.500,121.838 78.838,121.625 79.250 M281.542 85.263 C 281.688 85.682,281.854 85.979,281.911 85.922 C 282.035 85.799,281.563 84.500,281.394 84.500 C 281.329 84.500,281.396 84.843,281.542 85.263 M118.257 85.857 C 117.886 86.834,117.959 86.988,118.405 86.165 C 118.616 85.775,118.727 85.394,118.652 85.318 C 118.576 85.243,118.398 85.485,118.257 85.857 M282.525 87.563 C 283.072 88.952,283.439 89.536,283.126 88.522 C 282.828 87.554,282.254 86.250,282.125 86.250 C 282.060 86.250,282.240 86.841,282.525 87.563 M117.531 87.528 C 117.403 87.856,117.062 88.669,116.774 89.333 C 116.486 89.998,116.253 90.673,116.257 90.833 C 116.260 90.994,116.654 90.234,117.132 89.146 C 117.609 88.057,117.947 87.114,117.882 87.049 C 117.817 86.984,117.659 87.199,117.531 87.528 M283.301 89.500 C 284.038 91.614,284.587 92.996,284.660 92.923 C 284.786 92.798,283.628 89.540,283.377 89.313 C 283.263 89.209,283.229 89.294,283.301 89.500 M285.268 95.173 C 285.324 95.822,285.715 96.372,285.732 95.827 C 285.742 95.526,285.637 95.210,285.500 95.125 C 285.363 95.040,285.258 95.062,285.268 95.173 M114.275 96.150 C 114.131 96.671,114.059 97.142,114.114 97.197 C 114.169 97.252,114.331 96.871,114.475 96.350 C 114.619 95.829,114.691 95.358,114.636 95.303 C 114.581 95.248,114.419 95.629,114.275 96.150 M286.035 97.625 C 286.035 97.900,286.132 98.350,286.250 98.625 L 286.465 99.125 286.465 98.625 C 286.465 98.350,286.368 97.900,286.250 97.625 L 286.035 97.125 286.035 97.625 M113.671 97.846 C 113.577 98.091,113.507 98.479,113.516 98.708 C 113.526 98.984,113.613 98.921,113.773 98.521 C 113.906 98.189,113.975 97.801,113.928 97.659 C 113.881 97.517,113.765 97.601,113.671 97.846 M113.183 99.625 C 112.802 100.932,112.761 101.891,113.134 100.754 C 113.337 100.137,113.463 99.518,113.415 99.379 C 113.367 99.239,113.263 99.350,113.183 99.625 M286.800 100.375 C 286.800 100.650,286.890 101.156,287.000 101.500 C 287.158 101.995,287.200 102.021,287.200 101.625 C 287.200 101.350,287.110 100.844,287.000 100.500 C 286.842 100.005,286.800 99.979,286.800 100.375 M112.432 102.625 C 112.352 102.900,112.227 103.631,112.155 104.250 C 112.027 105.346,112.033 105.339,112.380 104.000 C 112.711 102.723,112.757 101.511,112.432 102.625 M287.409 103.375 C 287.691 105.041,287.998 105.763,287.835 104.375 C 287.754 103.688,287.587 102.956,287.464 102.750 C 287.323 102.515,287.303 102.747,287.409 103.375 M111.614 106.864 C 111.518 107.501,111.496 108.079,111.565 108.148 C 111.634 108.217,111.768 107.751,111.864 107.114 C 111.959 106.476,111.981 105.898,111.913 105.829 C 111.844 105.760,111.709 106.226,111.614 106.864 M288.039 106.375 C 288.034 106.650,288.122 107.325,288.236 107.875 L 288.443 108.875 288.446 108.000 C 288.448 107.519,288.360 106.844,288.250 106.500 C 288.088 105.995,288.048 105.971,288.039 106.375 M111.178 109.626 C 111.093 110.175,110.967 111.806,110.898 113.250 L 110.773 115.875 111.132 112.500 C 111.476 109.265,111.504 107.534,111.178 109.626 M288.677 110.750 C 288.918 113.830,289.240 115.485,289.086 112.853 C 289.013 111.603,288.858 110.197,288.742 109.728 C 288.600 109.159,288.579 109.500,288.677 110.750 M289.271 118.194 C 289.298 119.325,289.407 120.250,289.512 120.250 C 289.704 120.250,289.531 116.480,289.329 116.256 C 289.270 116.191,289.244 117.063,289.271 118.194 M110.587 120.750 C 110.587 121.919,110.630 122.397,110.683 121.813 C 110.736 121.228,110.736 120.272,110.683 119.688 C 110.630 119.103,110.587 119.581,110.587 120.750 M289.445 122.062 C 289.564 124.719,289.673 124.975,289.713 122.688 C 289.733 121.484,289.666 120.500,289.563 120.500 C 289.459 120.499,289.406 121.202,289.445 122.062 M289.417 125.167 C 289.325 125.258,289.250 126.177,289.250 127.208 C 289.250 129.566,289.390 129.453,289.585 126.938 C 289.736 124.991,289.724 124.860,289.417 125.167 M110.819 127.375 C 110.815 128.063,110.893 129.412,110.992 130.375 C 111.167 132.086,111.172 132.094,111.181 130.750 C 111.187 129.994,111.109 128.644,111.009 127.750 C 110.837 126.221,110.826 126.199,110.819 127.375 M288.882 132.632 C 288.783 133.816,288.758 134.842,288.827 134.910 C 288.896 134.979,289.033 134.066,289.132 132.882 C 289.230 131.697,289.255 130.671,289.186 130.603 C 289.117 130.534,288.980 131.447,288.882 132.632 M111.308 133.000 C 111.308 133.481,111.359 133.678,111.422 133.438 C 111.485 133.197,111.485 132.803,111.422 132.563 C 111.359 132.322,111.308 132.519,111.308 133.000 M111.525 135.146 C 111.539 135.684,111.646 136.406,111.763 136.750 C 111.901 137.155,111.925 136.847,111.832 135.875 C 111.665 134.137,111.489 133.719,111.525 135.146 M288.154 138.217 C 288.055 138.955,288.028 139.612,288.094 139.677 C 288.260 139.844,288.576 137.603,288.442 137.203 C 288.382 137.023,288.252 137.479,288.154 138.217 M112.172 139.363 C 112.254 140.181,112.413 141.138,112.526 141.488 C 112.781 142.277,112.541 140.026,112.235 138.750 C 112.083 138.120,112.066 138.291,112.172 139.363 M287.513 141.904 C 287.355 142.814,287.276 143.610,287.339 143.672 C 287.457 143.790,287.610 143.128,287.884 141.313 C 288.143 139.594,287.828 140.097,287.513 141.904 M112.919 143.625 C 113.002 144.313,113.162 145.100,113.275 145.375 C 113.527 145.986,113.258 143.901,112.969 143.000 C 112.845 142.615,112.826 142.855,112.919 143.625 M286.886 144.938 C 286.792 145.453,286.660 146.156,286.592 146.500 C 286.501 146.958,286.531 147.025,286.703 146.750 C 286.957 146.345,287.353 144.000,287.168 144.000 C 287.106 144.000,286.979 144.422,286.886 144.938 M113.518 146.521 C 113.527 146.853,113.637 147.350,113.762 147.625 C 113.920 147.973,113.942 147.822,113.836 147.125 C 113.659 145.964,113.492 145.647,113.518 146.521 M286.156 148.281 C 285.948 149.323,286.150 149.525,286.375 148.500 C 286.470 148.068,286.495 147.662,286.432 147.598 C 286.368 147.535,286.244 147.842,286.156 148.281 M114.165 149.375 C 114.251 149.925,114.416 150.600,114.531 150.875 C 114.665 151.192,114.685 151.010,114.585 150.375 C 114.499 149.825,114.334 149.150,114.219 148.875 C 114.085 148.558,114.065 148.740,114.165 149.375 M285.531 150.750 C 285.510 150.956,285.431 151.406,285.354 151.750 C 285.234 152.290,285.254 152.315,285.499 151.930 C 285.655 151.686,285.735 151.236,285.675 150.930 C 285.616 150.625,285.551 150.544,285.531 150.750 M114.792 151.750 C 114.805 152.400,115.199 153.467,115.208 152.875 C 115.212 152.600,115.118 152.150,115.000 151.875 C 114.868 151.569,114.788 151.520,114.792 151.750 M284.771 153.896 C 284.609 154.537,284.524 155.108,284.582 155.165 C 284.639 155.222,284.818 154.745,284.979 154.104 C 285.141 153.463,285.226 152.892,285.168 152.835 C 285.111 152.778,284.932 153.255,284.771 153.896 M115.521 154.625 C 115.514 154.900,115.617 155.294,115.750 155.500 C 116.071 155.997,116.071 155.372,115.750 154.625 L 115.535 154.125 115.521 154.625 M116.152 156.750 C 116.238 157.231,116.409 157.794,116.532 158.000 C 116.798 158.444,116.543 157.148,116.212 156.375 C 116.067 156.038,116.048 156.160,116.152 156.750 M283.529 158.292 C 283.513 158.521,283.435 158.915,283.356 159.167 C 283.220 159.601,283.227 159.602,283.498 159.180 C 283.655 158.935,283.733 158.541,283.671 158.305 C 283.569 157.918,283.555 157.916,283.529 158.292 M116.905 159.375 C 116.994 159.787,117.166 160.294,117.287 160.500 C 117.428 160.740,117.448 160.605,117.345 160.125 C 117.256 159.713,117.084 159.206,116.963 159.000 C 116.822 158.760,116.802 158.895,116.905 159.375 M282.775 160.900 C 282.631 161.421,282.559 161.892,282.614 161.947 C 282.669 162.002,282.831 161.621,282.975 161.100 C 283.119 160.579,283.191 160.108,283.136 160.053 C 283.081 159.998,282.919 160.379,282.775 160.900 M282.143 162.893 C 282.051 163.259,282.024 163.607,282.083 163.666 C 282.142 163.725,282.265 163.474,282.357 163.107 C 282.449 162.741,282.476 162.393,282.417 162.334 C 282.358 162.275,282.235 162.526,282.143 162.893 M118.762 164.915 C 118.746 165.298,119.797 168.037,119.915 167.919 C 119.965 167.868,119.729 167.107,119.390 166.226 C 119.052 165.345,118.769 164.756,118.762 164.915 M120.154 168.875 C 120.242 169.287,120.425 169.738,120.560 169.875 C 120.722 170.039,120.743 169.911,120.623 169.500 C 120.327 168.491,119.969 168.014,120.154 168.875 M279.524 170.537 C 279.193 171.488,279.180 171.676,279.468 171.363 C 279.707 171.101,280.073 169.750,279.904 169.750 C 279.846 169.750,279.675 170.104,279.524 170.537 M120.911 170.749 C 121.000 171.092,121.282 171.823,121.537 172.374 C 121.792 172.925,121.928 173.094,121.839 172.751 C 121.750 172.408,121.468 171.677,121.213 171.126 C 120.958 170.575,120.822 170.406,120.911 170.749 M278.778 172.528 C 278.624 172.970,278.541 173.375,278.595 173.428 C 278.648 173.482,278.818 173.164,278.972 172.722 C 279.126 172.280,279.209 171.875,279.155 171.822 C 279.102 171.768,278.932 172.086,278.778 172.528 M122.143 174.000 C 122.233 174.344,122.406 174.732,122.528 174.863 C 122.885 175.244,122.775 174.697,122.356 174.000 L 121.979 173.375 122.143 174.000 M277.781 175.156 C 277.077 176.997,277.239 177.159,277.984 175.359 C 278.300 174.598,278.505 173.922,278.441 173.857 C 278.376 173.793,278.079 174.377,277.781 175.156 M123.508 177.031 C 123.495 177.282,124.512 179.500,124.640 179.500 C 124.704 179.500,124.593 179.107,124.392 178.627 C 123.972 177.622,123.519 176.804,123.508 177.031 M276.427 178.427 C 276.214 178.948,275.852 179.825,275.622 180.375 C 275.392 180.925,275.308 181.262,275.435 181.125 C 275.756 180.778,277.038 177.705,276.914 177.581 C 276.858 177.525,276.639 177.906,276.427 178.427 M124.886 180.313 C 124.980 180.622,125.159 180.985,125.285 181.119 C 125.411 181.254,125.387 181.001,125.232 180.557 C 124.916 179.649,124.623 179.442,124.886 180.313 M274.547 182.637 C 273.794 184.187,273.878 184.404,274.654 182.913 C 275.001 182.246,275.242 181.658,275.189 181.606 C 275.137 181.554,274.848 182.018,274.547 182.637 M126.025 182.625 C 126.025 182.762,126.464 183.719,127.000 184.750 C 127.536 185.781,127.975 186.512,127.975 186.375 C 127.975 186.238,127.536 185.281,127.000 184.250 C 126.464 183.219,126.025 182.488,126.025 182.625 M128.625 188.000 C 128.973 188.688,129.315 189.250,129.383 189.250 C 129.452 189.250,129.223 188.688,128.875 188.000 C 128.527 187.313,128.185 186.750,128.117 186.750 C 128.048 186.750,128.277 187.313,128.625 188.000 M271.877 188.197 C 271.200 189.518,271.207 189.500,271.355 189.500 C 271.533 189.500,272.562 187.478,272.444 187.361 C 272.394 187.311,272.139 187.687,271.877 188.197 M130.174 190.875 C 130.502 191.684,132.534 195.250,132.668 195.250 C 132.811 195.250,130.542 190.994,130.202 190.625 C 130.060 190.471,130.049 190.567,130.174 190.875 M270.125 191.500 C 269.912 191.912,269.793 192.250,269.862 192.250 C 269.931 192.250,270.162 191.912,270.375 191.500 C 270.588 191.088,270.707 190.750,270.638 190.750 C 270.569 190.750,270.338 191.088,270.125 191.500 M269.028 193.503 C 268.720 194.051,268.520 194.500,268.584 194.500 C 268.754 194.500,269.787 192.704,269.680 192.596 C 269.630 192.546,269.337 192.954,269.028 193.503 M266.973 196.938 C 266.252 198.141,265.251 199.744,264.749 200.500 C 263.599 202.234,263.444 202.500,263.583 202.500 C 263.716 202.500,266.864 197.650,267.842 195.938 C 269.025 193.869,268.340 194.656,266.973 196.938 M133.302 196.396 C 133.617 196.958,134.077 197.689,134.323 198.021 C 134.570 198.353,134.514 198.165,134.198 197.604 C 133.883 197.042,133.423 196.311,133.177 195.979 C 132.930 195.647,132.986 195.835,133.302 196.396 M135.718 200.375 C 135.853 200.650,136.147 201.100,136.370 201.375 L 136.778 201.875 136.532 201.375 C 136.397 201.100,136.103 200.650,135.880 200.375 L 135.472 199.875 135.718 200.375 M136.880 202.250 C 137.362 203.137,140.572 207.765,140.806 207.909 C 140.947 207.997,140.186 206.787,139.115 205.222 C 137.278 202.536,136.405 201.375,136.880 202.250 M259.787 207.563 C 258.415 209.384,256.993 211.241,256.628 211.688 C 256.263 212.134,256.056 212.494,256.169 212.486 C 256.468 212.466,262.676 204.250,262.393 204.250 C 262.332 204.250,261.160 205.741,259.787 207.563 M142.730 210.688 C 143.410 211.616,144.318 212.769,144.748 213.250 C 145.179 213.731,144.671 212.972,143.621 211.563 C 142.570 210.153,141.662 209.000,141.602 209.000 C 141.543 209.000,142.050 209.759,142.730 210.688 M254.352 214.438 C 253.549 215.366,253.154 215.900,253.474 215.625 C 254.140 215.052,256.106 212.750,255.929 212.750 C 255.864 212.750,255.154 213.509,254.352 214.438 M145.926 214.867 C 146.173 215.207,146.479 215.488,146.606 215.492 C 146.733 215.496,146.573 215.219,146.250 214.875 C 145.500 214.077,145.348 214.073,145.926 214.867 M147.260 216.361 C 147.966 217.303,149.750 219.241,149.742 219.057 C 149.737 218.957,149.090 218.194,148.304 217.361 C 147.518 216.529,147.048 216.079,147.260 216.361 M251.274 217.779 C 250.669 218.454,250.219 219.047,250.274 219.096 C 250.330 219.146,250.920 218.582,251.586 217.843 C 252.252 217.104,252.702 216.511,252.586 216.525 C 252.470 216.539,251.880 217.103,251.274 217.779 M151.717 221.337 C 154.292 224.100,158.286 227.828,160.688 229.710 C 162.511 231.138,161.849 230.398,159.813 228.732 C 158.747 227.860,156.078 225.398,153.882 223.261 C 151.686 221.124,150.712 220.258,151.717 221.337 M247.881 221.468 L 246.137 223.375 248.069 221.506 C 249.131 220.478,250.000 219.607,250.000 219.569 C 250.000 219.274,249.378 219.832,247.881 221.468 M243.860 225.318 L 242.625 226.625 243.870 225.500 C 244.555 224.881,245.165 224.347,245.225 224.313 C 245.284 224.278,245.280 224.196,245.214 224.131 C 245.149 224.065,244.539 224.599,243.860 225.318 M241.851 227.033 C 241.084 227.890,235.057 232.662,232.815 234.186 C 231.681 234.957,230.799 235.632,230.853 235.687 C 231.013 235.847,236.664 231.718,239.250 229.552 C 241.508 227.661,242.726 226.500,242.452 226.500 C 242.384 226.500,242.113 226.740,241.851 227.033 M124.500 229.763 C 124.095 229.901,124.403 229.925,125.375 229.832 C 126.200 229.752,126.922 229.645,126.979 229.594 C 127.181 229.412,125.117 229.553,124.500 229.763 M129.521 229.592 C 129.578 229.642,130.075 229.759,130.625 229.851 C 131.342 229.971,131.519 229.946,131.250 229.763 C 130.913 229.533,129.270 229.371,129.521 229.592 M269.000 229.774 C 268.219 229.917,268.266 229.938,269.438 229.967 C 270.159 229.985,270.750 229.894,270.750 229.766 C 270.750 229.516,270.405 229.518,269.000 229.774 M271.000 229.806 C 271.000 229.913,271.450 230.000,272.000 230.000 C 272.550 230.000,273.000 229.956,273.000 229.901 C 273.000 229.847,272.550 229.760,272.000 229.707 C 271.450 229.655,271.000 229.699,271.000 229.806 M266.300 230.247 C 265.846 230.354,265.396 230.524,265.300 230.625 C 265.105 230.829,266.596 230.548,267.375 230.233 C 268.008 229.978,267.402 229.986,266.300 230.247 M275.000 230.237 C 276.235 230.527,278.777 230.772,278.000 230.526 C 277.656 230.417,276.644 230.261,275.750 230.179 C 274.653 230.079,274.409 230.098,275.000 230.237 M121.250 230.503 C 120.986 230.676,121.134 230.702,121.750 230.589 C 122.828 230.391,123.032 230.249,122.229 230.254 C 121.897 230.256,121.456 230.368,121.250 230.503 M119.250 231.000 C 118.748 231.161,118.723 231.202,119.125 231.208 C 119.400 231.212,119.850 231.118,120.125 231.000 C 120.762 230.726,120.105 230.726,119.250 231.000 M133.750 230.828 C 133.750 230.886,134.215 231.241,134.783 231.617 C 135.352 231.994,136.291 232.712,136.871 233.213 C 137.451 233.715,137.334 233.563,136.611 232.875 C 135.434 231.756,133.750 230.551,133.750 230.828 M263.993 231.163 C 262.899 231.895,261.964 232.856,261.599 233.625 C 261.394 234.056,261.377 234.177,261.559 233.910 C 262.423 232.640,262.933 232.123,263.969 231.466 C 264.590 231.072,264.988 230.750,264.855 230.750 C 264.721 230.750,264.333 230.936,263.993 231.163 M279.500 230.969 C 280.401 231.258,282.486 231.527,281.875 231.275 C 281.600 231.162,280.813 231.002,280.125 230.919 C 279.355 230.826,279.115 230.845,279.500 230.969 M116.500 231.750 C 116.003 232.071,116.628 232.071,117.375 231.750 L 117.875 231.535 117.375 231.521 C 117.100 231.514,116.706 231.617,116.500 231.750 M283.000 231.750 C 283.855 232.024,284.512 232.024,283.875 231.750 C 283.600 231.632,283.150 231.538,282.875 231.542 C 282.473 231.548,282.498 231.589,283.000 231.750 M114.535 232.287 C 114.073 232.420,113.742 232.575,113.799 232.632 C 113.925 232.759,115.750 232.273,115.750 232.113 C 115.750 231.966,115.552 231.994,114.535 232.287 M284.875 232.217 C 285.767 232.589,286.893 232.802,286.625 232.548 C 286.488 232.417,285.925 232.243,285.375 232.159 C 284.740 232.063,284.557 232.084,284.875 232.217 M164.752 232.678 C 164.752 232.786,165.062 233.063,165.439 233.293 C 165.816 233.523,166.491 233.956,166.938 234.255 C 167.384 234.554,167.750 234.736,167.750 234.659 C 167.750 234.582,167.075 234.060,166.250 233.500 C 165.425 232.940,164.751 232.570,164.752 232.678 M111.875 233.132 C 111.325 233.330,110.165 233.731,109.297 234.022 C 108.428 234.313,107.767 234.600,107.826 234.659 C 107.885 234.718,108.483 234.577,109.154 234.344 C 112.756 233.099,113.590 232.779,113.250 232.776 C 113.044 232.774,112.425 232.934,111.875 233.132 M287.283 232.866 C 287.465 233.048,290.593 233.990,290.691 233.893 C 290.739 233.845,290.075 233.568,289.215 233.278 C 287.702 232.766,287.043 232.626,287.283 232.866 M106.563 235.008 C 105.725 235.344,105.882 235.515,106.750 235.213 C 107.162 235.069,107.500 234.906,107.500 234.851 C 107.500 234.702,107.196 234.753,106.563 235.008 M141.028 237.500 C 142.448 239.081,143.641 240.422,143.680 240.479 C 143.718 240.536,143.799 240.535,143.858 240.475 C 143.918 240.416,142.725 239.075,141.207 237.496 L 138.448 234.625 141.028 237.500 M260.201 236.063 C 260.005 236.372,259.592 237.075,259.283 237.625 C 258.622 238.801,259.344 237.886,260.202 236.459 C 260.811 235.446,260.810 235.101,260.201 236.063 M228.125 237.134 C 226.887 237.885,225.965 238.499,226.074 238.499 C 226.367 238.500,230.222 236.248,230.388 235.979 C 230.600 235.637,230.554 235.660,228.125 237.134 M103.563 236.258 C 102.725 236.594,102.882 236.765,103.750 236.463 C 104.162 236.319,104.500 236.156,104.500 236.101 C 104.500 235.952,104.196 236.003,103.563 236.258 M170.500 236.479 C 171.102 236.970,171.500 237.130,171.500 236.881 C 171.500 236.816,171.134 236.584,170.688 236.366 L 169.875 235.970 170.500 236.479 M296.375 236.194 C 296.512 236.331,296.906 236.525,297.250 236.625 C 297.667 236.746,297.792 236.723,297.625 236.556 C 297.488 236.419,297.094 236.225,296.750 236.125 C 296.333 236.004,296.208 236.027,296.375 236.194 M101.813 237.008 C 100.975 237.344,101.132 237.515,102.000 237.213 C 102.412 237.069,102.750 236.906,102.750 236.851 C 102.750 236.702,102.446 236.753,101.813 237.008 M298.000 236.860 C 298.000 236.988,300.218 238.005,300.469 237.992 C 300.696 237.981,299.878 237.528,298.873 237.108 C 298.393 236.907,298.000 236.796,298.000 236.860 M97.688 239.015 C 96.072 239.834,94.750 240.560,94.750 240.629 C 94.750 240.741,100.725 237.832,100.979 237.597 C 101.368 237.236,100.222 237.730,97.688 239.015 M173.500 238.113 C 173.500 238.176,173.922 238.419,174.438 238.655 C 174.953 238.891,175.459 239.128,175.563 239.182 C 175.666 239.236,175.750 239.228,175.750 239.165 C 175.750 239.048,173.831 238.000,173.617 238.000 C 173.553 238.000,173.500 238.051,173.500 238.113 M301.110 238.387 C 301.648 238.789,302.105 238.872,301.894 238.530 C 301.819 238.409,301.503 238.246,301.191 238.168 C 300.645 238.030,300.642 238.038,301.110 238.387 M223.654 239.510 C 221.552 240.548,220.916 240.960,222.125 240.500 C 223.173 240.102,225.331 239.008,225.613 238.732 C 225.969 238.383,225.795 238.452,223.654 239.510 M302.250 238.865 C 302.250 238.934,302.700 239.219,303.250 239.500 C 303.800 239.781,304.250 239.954,304.250 239.885 C 304.250 239.816,303.800 239.531,303.250 239.250 C 302.700 238.969,302.250 238.796,302.250 238.865 M176.000 239.360 C 176.000 239.488,178.218 240.505,178.469 240.492 C 178.696 240.481,177.878 240.028,176.873 239.608 C 176.393 239.407,176.000 239.296,176.000 239.360 M304.625 240.195 C 304.984 240.516,307.750 242.025,307.750 241.899 C 307.750 241.754,305.493 240.386,304.875 240.156 C 304.574 240.045,304.475 240.060,304.625 240.195 M93.185 241.343 C 91.735 242.235,91.736 242.380,93.188 241.651 C 93.909 241.288,94.500 240.937,94.500 240.871 C 94.500 240.634,94.112 240.774,93.185 241.343 M145.027 241.975 C 145.631 242.648,146.225 243.211,146.348 243.225 C 146.470 243.239,146.077 242.699,145.473 242.025 C 144.869 241.352,144.275 240.789,144.152 240.775 C 144.030 240.761,144.423 241.301,145.027 241.975 M180.750 241.458 C 180.956 241.585,181.406 241.765,181.750 241.857 C 182.184 241.973,182.261 241.953,182.000 241.792 C 181.794 241.665,181.344 241.485,181.000 241.393 C 180.566 241.277,180.489 241.297,180.750 241.458 M218.875 241.634 C 218.250 241.935,218.229 241.970,218.750 241.842 C 219.458 241.669,220.255 241.263,219.875 241.269 C 219.738 241.271,219.287 241.435,218.875 241.634 M256.000 242.500 C 255.706 242.912,255.522 243.250,255.591 243.250 C 255.660 243.250,255.956 242.912,256.250 242.500 C 256.544 242.088,256.728 241.750,256.659 241.750 C 256.590 241.750,256.294 242.088,256.000 242.500 M182.750 242.224 C 182.956 242.339,183.463 242.499,183.875 242.581 L 184.625 242.729 183.875 242.376 C 183.031 241.978,182.077 241.849,182.750 242.224 M90.772 242.754 C 89.683 243.363,89.130 243.933,90.125 243.423 C 90.889 243.031,91.977 242.261,91.750 242.272 C 91.681 242.276,91.241 242.493,90.772 242.754 M215.285 242.787 C 214.823 242.920,214.492 243.075,214.549 243.132 C 214.675 243.259,216.500 242.773,216.500 242.613 C 216.500 242.466,216.302 242.494,215.285 242.787 M185.125 243.000 C 185.400 243.118,185.794 243.215,186.000 243.215 C 186.236 243.215,186.190 243.135,185.875 243.000 C 185.600 242.882,185.206 242.785,185.000 242.785 C 184.764 242.785,184.810 242.865,185.125 243.000 M309.625 243.130 C 309.900 243.353,310.350 243.647,310.625 243.782 L 311.125 244.028 310.625 243.620 C 310.350 243.397,309.900 243.103,309.625 242.968 L 309.125 242.722 309.625 243.130 M187.000 243.472 C 187.206 243.590,187.825 243.755,188.375 243.839 C 189.006 243.935,189.190 243.915,188.875 243.784 C 188.143 243.479,186.546 243.214,187.000 243.472 M212.640 243.531 C 212.098 243.658,211.592 243.826,211.515 243.903 C 211.313 244.107,213.303 243.726,213.750 243.476 C 214.212 243.217,213.920 243.231,212.640 243.531 M150.783 248.038 C 155.119 252.570,168.565 265.810,168.972 265.948 C 169.091 265.988,167.655 264.528,165.781 262.703 C 161.523 258.555,153.001 250.027,149.401 246.312 C 147.902 244.765,146.624 243.500,146.559 243.500 C 146.494 243.500,148.395 245.542,150.783 248.038 M254.609 244.418 C 254.224 244.923,254.037 245.257,254.193 245.160 C 254.513 244.962,255.595 243.500,255.422 243.500 C 255.360 243.500,254.994 243.913,254.609 244.418 M87.747 244.658 C 86.403 245.549,85.467 246.302,86.250 245.863 C 87.905 244.937,89.553 243.750,89.184 243.750 C 89.148 243.750,88.501 244.159,87.747 244.658 M190.125 244.250 C 190.400 244.368,190.963 244.459,191.375 244.453 L 192.125 244.441 191.375 244.250 C 190.963 244.145,190.400 244.054,190.125 244.047 L 189.625 244.035 190.125 244.250 M209.500 244.250 C 208.646 244.430,208.643 244.435,209.375 244.450 C 209.787 244.458,210.350 244.368,210.625 244.250 C 211.226 243.992,210.727 243.992,209.500 244.250 M311.375 244.171 C 311.512 244.305,312.581 245.072,313.750 245.875 C 314.919 246.678,316.269 247.609,316.750 247.945 L 317.625 248.555 316.875 247.896 C 315.745 246.903,310.615 243.428,311.375 244.171 M194.875 245.008 C 196.420 245.240,204.500 245.294,204.499 245.072 C 204.498 244.964,202.107 244.871,199.186 244.867 C 196.265 244.862,194.325 244.926,194.875 245.008 M204.750 244.950 C 204.750 245.060,205.172 245.108,205.688 245.057 C 207.139 244.913,207.245 244.791,205.938 244.770 C 205.284 244.759,204.750 244.840,204.750 244.950 M82.534 248.245 C 80.865 249.480,79.500 250.544,79.500 250.609 C 79.500 250.725,85.134 246.686,85.612 246.228 C 86.357 245.514,85.206 246.268,82.534 248.245 M252.305 247.385 C 251.244 248.827,251.427 248.821,252.612 247.375 C 253.119 246.756,253.442 246.254,253.329 246.260 C 253.217 246.265,252.756 246.771,252.305 247.385 M318.000 248.813 C 318.000 248.867,318.759 249.500,319.688 250.221 C 320.620 250.945,320.928 251.123,320.375 250.618 C 319.317 249.651,318.000 248.650,318.000 248.813 M248.065 252.438 C 246.401 254.328,243.344 257.554,241.270 259.606 C 239.197 261.658,237.500 263.400,237.500 263.478 C 237.500 263.773,245.412 255.740,247.942 252.875 C 251.196 249.191,251.357 249.000,251.208 249.000 C 251.143 249.000,249.728 250.547,248.065 252.438 M76.250 253.216 C 73.268 255.771,69.173 259.708,67.243 261.875 C 66.631 262.563,67.985 261.304,70.252 259.078 C 72.520 256.852,75.472 254.111,76.813 252.987 C 78.961 251.186,79.428 250.746,79.188 250.751 C 79.153 250.752,77.831 251.861,76.250 253.216 M323.362 253.225 C 326.711 256.264,333.883 263.634,336.098 266.313 C 337.321 267.791,338.379 269.000,338.449 269.000 C 338.520 269.000,338.411 268.803,338.207 268.563 C 338.004 268.322,337.339 267.510,336.731 266.758 C 333.100 262.270,325.309 254.410,322.112 252.010 C 321.831 251.798,322.393 252.345,323.362 253.225 M64.250 265.192 C 61.336 268.707,57.033 274.500,57.335 274.500 C 57.393 274.500,58.396 273.178,59.565 271.563 C 60.734 269.947,62.658 267.472,63.840 266.063 C 65.022 264.653,65.908 263.508,65.807 263.517 C 65.707 263.526,65.006 264.280,64.250 265.192 M235.921 264.671 C 235.261 265.295,234.757 265.840,234.800 265.884 C 234.844 265.927,235.419 265.452,236.079 264.829 C 236.739 264.205,237.243 263.660,237.200 263.616 C 237.156 263.573,236.581 264.048,235.921 264.671 M233.322 267.006 C 232.743 267.553,232.355 268.000,232.459 268.000 C 232.563 268.000,233.088 267.550,233.625 267.000 C 234.881 265.713,234.688 265.717,233.322 267.006 M169.522 266.396 C 169.547 266.648,180.329 276.747,180.450 276.631 C 180.491 276.591,179.821 275.899,178.961 275.092 C 175.647 271.982,173.055 269.540,171.313 267.887 C 170.316 266.942,169.510 266.271,169.522 266.396 M228.500 271.150 C 225.883 273.421,225.508 273.881,227.779 272.035 C 229.510 270.629,230.736 269.482,230.476 269.512 C 230.421 269.518,229.531 270.256,228.500 271.150 M340.022 271.250 C 341.022 272.628,341.397 273.039,341.048 272.375 C 340.903 272.100,340.429 271.481,339.995 271.000 L 339.205 270.125 340.022 271.250 M341.790 273.750 C 342.095 274.163,342.385 274.500,342.436 274.500 C 342.487 274.500,342.329 274.163,342.085 273.750 C 341.842 273.337,341.551 273.000,341.439 273.000 C 341.327 273.000,341.485 273.337,341.790 273.750 M221.500 276.903 C 217.563 280.115,215.236 282.180,217.875 280.121 C 221.707 277.132,226.151 273.376,225.688 273.519 C 225.653 273.530,223.769 275.053,221.500 276.903 M343.116 275.688 C 343.501 276.272,343.864 276.750,343.922 276.750 C 344.103 276.750,343.145 275.228,342.770 274.918 C 342.575 274.757,342.730 275.103,343.116 275.688 M56.345 275.813 C 55.485 277.272,55.429 277.397,55.867 276.875 C 56.375 276.270,56.812 275.500,56.649 275.500 C 56.583 275.500,56.447 275.641,56.345 275.813 M54.668 278.438 C 54.344 278.953,53.945 279.656,53.782 280.000 L 53.486 280.625 53.930 280.021 C 54.633 279.068,55.542 277.500,55.392 277.500 C 55.317 277.500,54.991 277.922,54.668 278.438 M182.554 278.634 C 183.202 279.303,183.780 279.800,183.838 279.738 C 183.896 279.676,183.366 279.128,182.659 278.521 L 181.375 277.417 182.554 278.634 M345.028 278.646 C 345.974 280.266,346.601 281.004,345.859 279.625 C 345.489 278.938,345.017 278.206,344.809 278.000 C 344.601 277.794,344.700 278.085,345.028 278.646 M185.485 281.306 C 186.234 282.094,186.899 282.684,186.965 282.619 C 187.030 282.553,187.034 282.472,186.974 282.438 C 186.914 282.403,186.248 281.813,185.495 281.125 L 184.125 279.875 185.485 281.306 M51.875 283.250 C 51.527 283.938,51.289 284.500,51.346 284.500 C 51.475 284.500,52.343 283.036,52.569 282.438 C 52.904 281.552,52.490 282.036,51.875 283.250 M214.000 283.034 L 212.875 284.053 213.934 283.258 C 214.855 282.567,215.446 281.984,215.202 282.007 C 215.160 282.012,214.619 282.473,214.000 283.034 M347.762 283.274 C 348.050 283.838,348.338 284.245,348.403 284.181 C 348.524 284.059,347.533 282.250,347.345 282.250 C 347.287 282.250,347.475 282.711,347.762 283.274 M187.272 282.884 C 187.295 283.149,195.786 290.983,196.458 291.359 C 196.687 291.487,196.144 290.926,195.250 290.111 C 193.261 288.297,190.322 285.564,188.563 283.890 C 187.841 283.204,187.260 282.751,187.272 282.884 M209.875 286.273 C 208.500 287.383,207.150 288.526,206.875 288.811 L 206.375 289.331 207.006 288.853 C 208.455 287.755,212.500 284.438,212.500 284.348 C 212.500 284.163,212.367 284.260,209.875 286.273 M349.514 286.528 C 350.075 287.643,350.642 288.840,350.774 289.187 C 350.906 289.535,351.074 289.759,351.147 289.686 C 351.290 289.544,348.832 284.500,348.620 284.500 C 348.551 284.500,348.953 285.412,349.514 286.528 M48.891 289.141 C 48.394 290.203,48.044 291.127,48.112 291.195 C 48.180 291.263,48.359 290.997,48.509 290.603 C 48.658 290.208,49.058 289.333,49.398 288.658 C 49.737 287.983,49.965 287.381,49.905 287.321 C 49.844 287.261,49.388 288.080,48.891 289.141 M204.659 290.401 C 203.991 290.868,203.552 291.250,203.684 291.250 C 203.956 291.250,206.000 289.814,206.000 289.623 C 206.000 289.459,206.044 289.433,204.659 290.401 M201.750 291.542 C 201.131 291.673,199.781 291.727,198.750 291.663 C 197.342 291.576,197.031 291.609,197.500 291.797 C 198.273 292.106,202.252 291.918,202.900 291.541 C 203.454 291.219,203.279 291.220,201.750 291.542 M46.987 293.410 C 46.849 293.772,46.782 294.116,46.839 294.172 C 46.896 294.229,47.062 293.932,47.208 293.513 C 47.533 292.580,47.337 292.489,46.987 293.410 M352.792 293.513 C 352.938 293.932,353.104 294.229,353.161 294.172 C 353.285 294.049,352.813 292.750,352.644 292.750 C 352.579 292.750,352.646 293.093,352.792 293.513 M46.016 295.891 C 45.700 296.652,45.495 297.328,45.559 297.393 C 45.624 297.457,45.921 296.873,46.219 296.094 C 46.923 294.253,46.761 294.091,46.016 295.891 M353.407 294.999 C 353.645 295.895,354.461 297.677,354.482 297.345 C 354.492 297.190,354.217 296.459,353.871 295.720 C 353.525 294.980,353.317 294.656,353.407 294.999 M45.185 297.921 C 45.121 298.033,45.002 298.462,44.920 298.875 C 44.772 299.621,44.773 299.621,45.148 298.783 C 45.475 298.054,45.505 297.355,45.185 297.921 M354.643 298.250 C 354.735 298.594,354.915 299.044,355.042 299.250 C 355.203 299.511,355.223 299.434,355.107 299.000 C 355.015 298.656,354.835 298.206,354.708 298.000 C 354.547 297.739,354.527 297.816,354.643 298.250 M44.275 300.650 C 44.131 301.171,44.059 301.642,44.114 301.697 C 44.169 301.752,44.331 301.371,44.475 300.850 C 44.619 300.329,44.691 299.858,44.636 299.803 C 44.581 299.748,44.419 300.129,44.275 300.650 M355.497 300.738 C 355.628 301.195,355.803 301.637,355.888 301.721 C 356.122 301.956,355.715 300.407,355.472 300.142 C 355.355 300.014,355.366 300.282,355.497 300.738 M43.671 302.346 C 43.577 302.591,43.507 302.979,43.516 303.208 C 43.526 303.484,43.613 303.421,43.773 303.021 C 43.906 302.689,43.975 302.301,43.928 302.159 C 43.881 302.017,43.765 302.101,43.671 302.346 M356.155 302.875 C 356.244 303.288,356.416 303.794,356.537 304.000 C 356.678 304.240,356.698 304.105,356.595 303.625 C 356.506 303.212,356.334 302.706,356.213 302.500 C 356.072 302.260,356.052 302.395,356.155 302.875 M43.000 304.750 C 42.844 305.328,42.766 305.849,42.826 305.909 C 42.886 305.969,43.056 305.539,43.205 304.955 C 43.353 304.370,43.431 303.848,43.379 303.795 C 43.326 303.743,43.156 304.172,43.000 304.750 M356.792 304.875 C 356.788 305.150,356.882 305.600,357.000 305.875 C 357.274 306.512,357.274 305.855,357.000 305.000 C 356.839 304.498,356.798 304.473,356.792 304.875 M42.375 307.000 C 42.280 307.432,42.255 307.838,42.318 307.902 C 42.382 307.965,42.506 307.658,42.594 307.219 C 42.802 306.177,42.600 305.975,42.375 307.000 M357.292 306.750 C 357.305 307.400,357.699 308.467,357.708 307.875 C 357.712 307.600,357.618 307.150,357.500 306.875 C 357.368 306.569,357.288 306.520,357.292 306.750 M41.625 310.000 C 41.530 310.432,41.505 310.838,41.568 310.902 C 41.632 310.965,41.756 310.658,41.844 310.219 C 42.052 309.177,41.850 308.975,41.625 310.000 M358.164 310.625 C 358.248 311.175,358.358 311.672,358.408 311.729 C 358.598 311.944,358.456 310.605,358.238 310.125 C 358.080 309.777,358.058 309.928,358.164 310.625 M41.153 311.938 C 40.839 313.526,40.742 314.623,40.961 314.125 C 41.225 313.524,41.581 311.250,41.410 311.250 C 41.344 311.250,41.228 311.559,41.153 311.938 M358.671 313.120 C 358.755 313.805,358.916 314.649,359.028 314.995 C 359.156 315.391,359.175 315.162,359.079 314.380 C 358.995 313.695,358.834 312.851,358.722 312.505 C 358.594 312.109,358.575 312.338,358.671 313.120 M40.422 315.756 C 40.331 316.097,40.268 316.712,40.281 317.125 C 40.300 317.723,40.350 317.647,40.526 316.750 C 40.768 315.521,40.689 314.761,40.422 315.756 M359.417 317.500 C 359.494 318.256,359.650 319.269,359.763 319.750 C 359.902 320.341,359.921 320.097,359.821 319.000 C 359.739 318.106,359.583 317.094,359.474 316.750 C 359.355 316.373,359.332 316.670,359.417 317.500 M39.670 321.127 C 39.580 321.676,39.519 322.519,39.534 323.000 C 39.553 323.549,39.643 323.269,39.777 322.250 C 40.015 320.447,39.930 319.556,39.670 321.127 M360.177 323.250 C 360.253 324.281,360.357 325.172,360.408 325.229 C 360.580 325.423,360.442 322.880,360.239 322.125 C 360.116 321.667,360.092 322.106,360.177 323.250 M39.318 325.750 C 39.318 326.369,39.367 326.622,39.426 326.313 C 39.486 326.003,39.486 325.497,39.426 325.188 C 39.367 324.878,39.318 325.131,39.318 325.750 M360.520 327.313 C 360.509 327.966,360.590 328.500,360.700 328.500 C 360.810 328.500,360.858 328.078,360.807 327.563 C 360.663 326.111,360.541 326.005,360.520 327.313 M39.105 332.250 C 39.105 334.931,39.141 336.028,39.186 334.688 C 39.231 333.347,39.231 331.153,39.186 329.813 C 39.141 328.472,39.105 329.569,39.105 332.250 M360.853 333.875 C 360.854 336.350,360.891 337.329,360.936 336.050 C 360.982 334.771,360.982 332.746,360.936 331.550 C 360.890 330.354,360.853 331.400,360.853 333.875 M39.191 337.938 C 39.142 338.041,39.176 338.575,39.266 339.125 L 39.429 340.125 39.465 338.938 C 39.498 337.833,39.403 337.488,39.191 337.938 M360.500 340.292 C 360.500 341.002,360.541 341.536,360.592 341.479 C 360.805 341.238,360.920 339.000,360.719 339.000 C 360.599 339.000,360.500 339.581,360.500 340.292 M39.530 341.896 C 39.546 342.572,39.650 343.462,39.761 343.875 C 39.884 344.333,39.908 343.894,39.823 342.750 C 39.664 340.597,39.486 340.078,39.530 341.896 M360.313 343.375 C 360.316 343.925,360.367 344.121,360.427 343.810 C 360.487 343.499,360.484 343.049,360.422 342.810 C 360.359 342.571,360.310 342.825,360.313 343.375 M40.167 346.625 C 40.250 347.450,40.407 348.350,40.516 348.625 C 40.766 349.257,40.490 346.595,40.218 345.750 C 40.099 345.381,40.078 345.739,40.167 346.625 M359.534 348.250 C 359.512 348.594,359.435 349.156,359.365 349.500 L 359.236 350.125 359.504 349.510 C 359.652 349.171,359.728 348.609,359.674 348.260 L 359.575 347.625 359.534 348.250 M40.800 350.000 C 40.800 350.344,40.890 350.906,41.000 351.250 L 41.200 351.875 41.200 351.250 C 41.200 350.906,41.110 350.344,41.000 350.000 L 40.800 349.375 40.800 350.000 M358.786 351.911 C 358.629 352.693,358.546 353.380,358.603 353.436 C 358.660 353.493,358.838 352.903,359.000 352.125 C 359.162 351.347,359.244 350.660,359.183 350.599 C 359.121 350.538,358.943 351.128,358.786 351.911 M41.521 353.375 C 41.514 353.650,41.617 354.044,41.750 354.250 C 42.071 354.747,42.071 354.122,41.750 353.375 L 41.535 352.875 41.521 353.375 M358.156 354.531 C 358.068 354.970,358.043 355.376,358.099 355.433 C 358.156 355.489,358.280 355.182,358.375 354.750 C 358.470 354.318,358.495 353.912,358.432 353.848 C 358.368 353.785,358.244 354.092,358.156 354.531 M42.268 356.173 C 42.258 356.474,42.362 356.790,42.500 356.875 C 42.796 357.058,42.796 356.813,42.500 356.125 C 42.293 355.643,42.285 355.645,42.268 356.173 M357.525 356.650 C 357.381 357.171,357.309 357.642,357.364 357.697 C 357.419 357.752,357.581 357.371,357.725 356.850 C 357.869 356.329,357.941 355.858,357.886 355.803 C 357.831 355.748,357.669 356.129,357.525 356.650 M42.780 357.750 C 42.776 357.956,42.927 358.462,43.116 358.875 C 43.558 359.841,43.565 359.391,43.125 358.250 C 42.940 357.769,42.785 357.544,42.780 357.750 M44.143 361.750 C 44.235 362.094,44.415 362.544,44.542 362.750 C 44.703 363.011,44.723 362.934,44.607 362.500 C 44.515 362.156,44.335 361.706,44.208 361.500 C 44.047 361.239,44.027 361.316,44.143 361.750 M355.542 362.487 C 355.396 362.907,355.329 363.250,355.394 363.250 C 355.563 363.250,356.035 361.951,355.911 361.828 C 355.854 361.771,355.688 362.068,355.542 362.487 M354.792 364.237 C 354.646 364.657,354.579 365.000,354.644 365.000 C 354.813 365.000,355.285 363.701,355.161 363.578 C 355.104 363.521,354.938 363.818,354.792 364.237 " stroke="none" fill="#e4e4e4" fill-rule="evenodd"></path></g></svg>